<svg xmlns="http://www.w3.org/2000/svg" viewBox="0 0 600 750">
  <defs>
    <linearGradient id="bg2" x1="0" y1="0" x2="1" y2="1">
      <stop offset="0" stop-color="#fbf3ec"/><stop offset="1" stop-color="#f0ddd0"/>
    </linearGradient>
  </defs>
  <rect width="600" height="750" fill="url(#bg2)"/>
  <path d="M150 760 C 150 600 230 510 300 510 C 370 510 450 600 450 760 Z" fill="#e6c0b4" opacity="0.4"/>
  <circle cx="300" cy="305" r="135" fill="#e6c0b4" opacity="0.45"/>
  <path d="M300 250 C 300 250 245 210 245 173 C 245 153 261 139 281 139 C 294 139 300 149 300 161 C 300 149 306 139 319 139 C 339 139 355 153 355 173 C 355 210 300 250 300 250 Z" fill="none" stroke="#b5544e" stroke-width="4" opacity="0.5"/>
</svg>
